<?xml version="1.0" encoding="utf-8"?>
<!-- Generator: Adobe Illustrator 24.1.2, SVG Export Plug-In . SVG Version: 6.00 Build 0)  -->
<svg version="1.1" id="Layer_1" xmlns="http://www.w3.org/2000/svg" xmlns:xlink="http://www.w3.org/1999/xlink" x="0px" y="0px"
	 viewBox="0 0 773 186" style="enable-background:new 0 0 773 186;" xml:space="preserve">
<g>
	<path d="M-0.2,134.6c0-4.2,2.6-6.8,6.1-6.8c6.1,0,11.5,6.3,21.1,12.4c19.9,12.4,38.5,16.9,62.4,16.9c24.9,0,38.5-9.6,38.5-22.1
		c0-14.3-16.2-21.6-48.3-32.4c-22.1-7.5-39-12.2-48.6-18.5C17.4,75,10.9,64.4,10.9,50.6c0-24.4,21.8-42.2,54.7-42.2
		c15.7,0,25.3,3.1,29.1,3.1s5.4-1.4,7-4.7c1.4-3.1,3.3-4.7,6.1-4.7c4.2,0,8.2,3.3,13.4,9.4l18.8,21.8c4.5,5.2,7.3,8.9,7.3,12.9
		c0,3.8-3.1,6.6-6.8,6.6c-5.4,0-11.3-5.4-21.4-11.5c-12.4-7.5-23.9-11.5-35.7-11.5c-16,0-24.6,5.4-24.6,13.1
		c0,12.2,19.5,14.1,52.8,23.9c41.3,12.2,60.5,29.1,60.5,60.5c0,31-25.6,53-71.1,53c-28.2,0-46-5.9-52.8-5.9
		c-4.7,0-6.1,11.5-14.1,11.5c-4.9,0-7.7-4-12-10.8L4.5,146.8C1.2,141.6-0.2,137.4-0.2,134.6z"/>
	<path d="M216.2,40.2c0.7-2.6,1.4-4.9,1.4-7.3c0-5.6-12.7-5.6-12.7-14.8c0-4.5,3.8-7,10.8-7h44.1c6.1,0,9.2,2.8,9.2,8.2
		c0,8-11,8.7-11,16c0,1.9,0.5,4.2,1.6,6.8l22.8,52.3c1.9,4.2,3.8,10.3,5.9,18.3c1.9-7.3,4-13.8,6.8-19.5l23.9-50.7
		c1.6-3.5,2.8-6.6,2.8-9.2c0-5.6-12-5.9-12-14.1c0-5.4,3.8-8.2,11-8.2h41.1c7.3,0,11,2.6,11,8c0,3.1-2.1,6.3-4,7.5
		c-5.4,3.1-8.9,4.2-8.9,9.9c0,1.4,0.5,3.1,0.9,5.4l23.9,105.8c1.2,5.6,3.8,9.2,8.9,11.7c4.5,2.3,8.4,3.1,8.4,9.6
		c0,4.9-4.7,8.9-10.8,8.9h-49.5c-5.9,0-9.4-3.3-9.4-8.4c0-9.2,11.3-10.3,11.3-15c0-1.4-0.2-3.5-0.9-6.8l-11.7-54.2
		c-0.7-3.3-1.4-8.7-1.6-16.4c-1.2,5.2-3.1,9.9-5.2,14.5l-35.2,76c-2.8,5.9-4.5,9.4-8.4,9.4c-4.2,0-6.3-3.5-9.4-10.6l-32.6-75.1
		c-2.3-5.4-3.8-10.3-4.5-15c-0.5,6.3-1.4,11.5-2.3,15.3l-14.5,56.8c-0.9,3.5-1.4,5.9-1.4,6.8c0,5.9,10.6,5.9,10.6,14.3
		c0,5.2-3.8,8.4-10.1,8.4h-35.9c-5.4,0-9.6-3.5-9.6-8.2c0-5.9,2.8-8.2,8.9-10.6c4.5-1.9,6.6-2.3,8.2-8.9L216.2,40.2z"/>
	<path d="M416.1,49.6c16.7-25.6,45.8-41.3,75.8-41.3c24.4,0,48.1,9.9,64.8,26.8c17.8,17.8,27,40.1,27,66.2
		c0,48.3-34.3,79.5-90.8,79.5c-58.9,0-92.5-29.3-92.5-77.9C400.4,83.9,405.5,65.8,416.1,49.6z M492.4,158c25.3,0,42-20.6,42-57.5
		c0-42.7-19-71.3-42-71.3c-12,0-21.8,7.3-30,21.4c-7.3,12.7-12.2,30.3-12.2,48.8C450.1,135.5,467.7,158,492.4,158z"/>
	<path d="M629.9,163.4c-26.3-14.5-40.6-38.5-40.6-68.3c0-23.9,9.4-45.3,27.2-61.2c17.8-16.2,43.4-25.6,71.8-25.6
		c12.2,0,22.3,2.3,30.3,2.3c7.5,0,7.5-8,14.3-8c4.9,0,6.3,5.9,10.6,16l6.6,15.7c4.2,10.3,6.8,16.9,6.8,19.9c0,3.8-2.6,6.3-5.4,6.3
		c-4.7,0-8.7-5.6-16.4-12.4c-14.1-12.4-27.7-18.8-43.4-18.8c-30,0-52.8,25.1-52.8,60.5c0,39.4,22.1,63.6,58,63.6
		c14.1,0,19.9-3.8,19.9-13.1V120c0-5.6-1.2-8.2-5.2-10.3c-5.2-2.6-10.6-3.1-10.6-9.6c0-6.8,4.2-9.6,13.4-9.6h44.3
		c9.2,0,13.4,2.6,13.4,9.4c0,6.8-5.6,7.3-10.8,9.9c-3.8,1.9-4.9,4.9-4.9,10.3v27.2c0,5.9,1.2,8.4,5.2,10.6
		c5.4,2.8,11.3,3.1,11.3,10.1c0,7-4.7,10.1-14.1,10.1h-44.6C680.8,178,653.6,176.6,629.9,163.4z"/>
</g>
</svg>
